<?xml version="1.0" standalone="no"?>
<!DOCTYPE svg PUBLIC "-//W3C//DTD SVG 20010904//EN"
 "http://www.w3.org/TR/2001/REC-SVG-20010904/DTD/svg10.dtd">
<svg version="1.0" xmlns="http://www.w3.org/2000/svg"
 width="500.000000pt" height="500.000000pt" viewBox="0 0 500.000000 500.000000"
 preserveAspectRatio="xMidYMid meet">

<g transform="translate(0.000000,500.000000) scale(0.100000,-0.100000)"
fill="#000000" stroke="none">
<path d="M2255 4514 c-972 -141 -1692 -889 -1775 -1843 -13 -141 0 -407 25
-536 108 -556 425 -1035 885 -1335 599 -390 1357 -438 1995 -126 417 204 728
513 934 928 137 275 211 581 211 879 0 364 -98 734 -275 1035 -258 438 -675
771 -1145 916 -229 70 -293 80 -570 83 -140 2 -268 1 -285 -1z m611 -148 c153
-31 238 -56 361 -107 451 -187 817 -544 1015 -992 294 -664 186 -1434 -278
-1987 -301 -359 -719 -596 -1176 -666 -154 -24 -424 -24 -576 0 -465 72 -877
308 -1187 680 -188 225 -325 517 -392 835 -25 116 -27 145 -27 366 -1 192 3
259 17 333 106 544 410 993 872 1287 83 54 304 158 400 189 229 74 386 96 645
91 168 -3 227 -8 326 -29z"/>
<path d="M2345 4209 c-389 -37 -751 -202 -1033 -473 -551 -528 -687 -1342
-338 -2023 85 -165 176 -292 301 -418 227 -230 514 -394 820 -469 330 -81 719
-54 1035 71 648 257 1089 894 1090 1576 1 588 -283 1129 -760 1449 -251 168
-511 259 -820 287 -128 12 -165 12 -295 0z m-451 -798 c191 -59 321 -76 606
-76 222 0 272 3 385 24 131 23 319 77 387 112 l38 19 64 -129 65 -129 -67 -30
c-64 -28 -217 -79 -310 -102 l-42 -11 2 -561 3 -561 104 -28 c112 -30 164 -47
253 -86 l57 -25 -64 -128 -64 -128 -68 28 c-98 41 -221 75 -369 101 -112 20
-161 23 -374 23 -188 0 -268 -4 -345 -17 -148 -26 -287 -63 -374 -100 -42 -17
-79 -32 -83 -32 -12 0 -129 248 -121 256 22 22 208 84 401 135 9 3 12 124 12
563 l0 561 -27 6 c-124 27 -361 109 -386 133 -5 5 20 65 54 133 l62 125 52
-22 c28 -13 95 -37 149 -54z"/>
<path d="M2280 2530 l0 -515 225 0 225 0 0 515 0 515 -225 0 -225 0 0 -515z"/>
</g>
</svg>
